<svg width="36" height="34" viewBox="0 0 36 34" fill="none" xmlns="http://www.w3.org/2000/svg">
<path d="M18 2.83334C14.0703 2.84292 10.301 4.30612 7.5 6.90929V4.25001C7.5 3.87429 7.34196 3.51395 7.06066 3.24828C6.77936 2.9826 6.39782 2.83334 6 2.83334C5.60218 2.83334 5.22064 2.9826 4.93934 3.24828C4.65804 3.51395 4.5 3.87429 4.5 4.25001V10.625C4.49995 10.8111 4.53871 10.9953 4.61408 11.1672C4.68944 11.3391 4.79993 11.4953 4.93923 11.6269C5.07852 11.7584 5.2439 11.8628 5.42591 11.9339C5.60793 12.0051 5.803 12.0417 6 12.0417H12.75C13.1478 12.0417 13.5294 11.8924 13.8107 11.6267C14.092 11.3611 14.25 11.0007 14.25 10.625C14.25 10.2493 14.092 9.88895 13.8107 9.62328C13.5294 9.3576 13.1478 9.20834 12.75 9.20834H9.32766C10.6955 7.85044 12.3989 6.83451 14.2851 6.2517C16.1712 5.6689 18.181 5.53747 20.1342 5.86919C22.0874 6.20091 23.9228 6.98541 25.4758 8.1523C27.0288 9.31919 28.2507 10.832 29.032 12.5549C29.8132 14.2778 30.1294 16.1569 29.952 18.0237C29.7747 19.8904 29.1094 21.6864 28.0158 23.2504C26.9223 24.8145 25.4347 26.0976 23.6866 26.9848C21.9385 27.8719 19.9845 28.3353 18 28.3333C17.6022 28.3333 17.2206 28.4826 16.9393 28.7483C16.658 29.014 16.5 29.3743 16.5 29.75C16.5 30.1257 16.658 30.4861 16.9393 30.7517C17.2206 31.0174 17.6022 31.1667 18 31.1667C21.9782 31.1667 25.7936 29.6741 28.6066 27.0174C31.4196 24.3606 33 20.7572 33 17C33 13.2428 31.4196 9.63943 28.6066 6.98266C25.7936 4.3259 21.9782 2.83334 18 2.83334Z" fill="#6563FF"/>
<path d="M21 18.4167H18C17.803 18.4167 17.6079 18.3801 17.4259 18.3089C17.2439 18.2378 17.0785 18.1334 16.9392 18.0019C16.7999 17.8703 16.6894 17.7141 16.6141 17.5422C16.5387 17.3703 16.4999 17.1861 16.5 17V12.75C16.5 12.3743 16.658 12.014 16.9393 11.7483C17.2206 11.4826 17.6022 11.3333 18 11.3333C18.3978 11.3333 18.7794 11.4826 19.0607 11.7483C19.342 12.014 19.5 12.3743 19.5 12.75V15.5833H21C21.3978 15.5833 21.7794 15.7326 22.0607 15.9983C22.342 16.264 22.5 16.6243 22.5 17C22.5 17.3757 22.342 17.7361 22.0607 18.0017C21.7794 18.2674 21.3978 18.4167 21 18.4167Z" fill="#6563FF"/>
<path d="M18 5.66666C16.376 5.67268 14.7702 5.98964 13.2797 6.59837C11.7891 7.20711 10.4446 8.09498 9.32767 9.20832H12.75C13.1478 9.20832 13.5294 9.35758 13.8107 9.62326C14.092 9.88893 14.25 10.2493 14.25 10.625C14.25 11.0007 14.092 11.361 13.8107 11.6267C13.5294 11.8924 13.1478 12.0417 12.75 12.0417H6.00001C5.63667 12.0392 5.28692 11.9109 5.01711 11.6811C4.74729 11.4513 4.57619 11.1359 4.53626 10.7948C3.41282 12.9522 2.89062 15.3445 3.01902 17.7456C3.14743 20.1467 3.92221 22.4771 5.27009 24.5166C6.61797 26.5561 8.4944 28.2371 10.7219 29.4008C12.9495 30.5644 15.4544 31.1722 18 31.1667C17.6022 31.1667 17.2207 31.0174 16.9393 30.7517C16.658 30.486 16.5 30.1257 16.5 29.75C16.5 29.3743 16.658 29.0139 16.9393 28.7483C17.2207 28.4826 17.6022 28.3333 18 28.3333C21.1826 28.3333 24.2349 27.1393 26.4853 25.0139C28.7357 22.8885 30 20.0058 30 17C30 13.9942 28.7357 11.1115 26.4853 8.98611C24.2349 6.8607 21.1826 5.66666 18 5.66666ZM21 18.4167H18C17.803 18.4167 17.6079 18.3801 17.4259 18.3089C17.2439 18.2377 17.0785 18.1334 16.9392 18.0018C16.7999 17.8703 16.6894 17.7141 16.6141 17.5422C16.5387 17.3703 16.5 17.186 16.5 17V12.75C16.5 12.3743 16.658 12.0139 16.9393 11.7483C17.2207 11.4826 17.6022 11.3333 18 11.3333C18.3978 11.3333 18.7794 11.4826 19.0607 11.7483C19.342 12.0139 19.5 12.3743 19.5 12.75V15.5833H21C21.3978 15.5833 21.7794 15.7326 22.0607 15.9983C22.342 16.2639 22.5 16.6243 22.5 17C22.5 17.3757 22.342 17.736 22.0607 18.0017C21.7794 18.2674 21.3978 18.4167 21 18.4167Z" fill="#B2B1FF"/>
</svg>
