<svg width="163" height="165" viewBox="0 0 163 165" fill="none" xmlns="http://www.w3.org/2000/svg">
<g filter="url(#filter0_d_233_2040)">
<rect x="36.1094" y="0.189941" width="128" height="128" rx="32" transform="rotate(15 36.1094 0.189941)" fill="#00CCBE" shape-rendering="crispEdges"/>
<g clip-path="url(#clip0_233_2040)">
<g clip-path="url(#clip1_233_2040)">
<g clip-path="url(#clip2_233_2040)">
<path d="M110.266 84.4133C110.557 83.3278 110.388 82.3686 109.881 81.4018C109.294 80.4136 108.444 79.7704 107.332 79.4723C106.219 79.1742 105.241 79.3276 104.239 79.89C103.236 80.4523 102.61 81.1986 102.32 82.284L99.5152 92.75C98.9751 94.7657 97.8029 96.2797 95.8984 97.348L95.8776 97.4256C93.9938 98.4165 92.0379 98.7233 89.9718 98.1697L72.966 93.613C71.8536 93.3149 70.8755 93.4684 69.8732 94.0307C68.8708 94.593 68.245 95.3394 67.9542 96.4248C67.6634 97.5101 67.8322 98.4694 68.419 99.4576C69.0059 100.446 69.797 100.99 70.9095 101.288L87.9152 105.845C92.1269 106.973 96.177 106.48 100.065 104.364C103.875 102.227 106.319 99.1432 107.462 94.8793L110.266 84.4133Z" fill="#990066"/>
<path d="M120.173 63.9678L114.531 62.4561L110.418 77.8062L116.06 79.318L120.173 63.9678Z" fill="#990066"/>
<path d="M108.572 60.8592L103.01 59.3687L98.8967 74.7188L104.459 76.2093L108.572 60.8592Z" fill="#990066"/>
<path d="M118.803 81.7977L120.194 76.6035L96.5137 70.2583L95.1219 75.4525C94.2702 78.6311 94.6764 81.565 96.3784 84.4308C98.1393 87.3954 100.63 89.226 103.888 90.099L103.967 90.1203C107.225 90.9933 110.318 90.5757 113.225 88.9449C116.132 87.3141 117.972 84.8988 118.803 81.7977Z" fill="#F5DF4D"/>
<path d="M62.8841 46.3735C57.5599 44.9469 54.252 46.8026 52.8602 51.9969L40.5625 97.8924L81.4873 108.858L93.785 62.9626C95.1768 57.7684 93.24 54.5074 87.9157 53.0807L62.8841 46.3735Z" fill="#FF3399"/>
<path d="M69.0245 67.9612L77.3816 58.069L64.1902 54.5344L53.2645 73.3771L62.5619 75.8684L56.3323 87.9925L84.3649 71.7393L69.0245 67.9612Z" fill="#F5DF4D"/>
</g>
</g>
</g>
</g>
<defs>
<filter id="filter0_d_233_2040" x="-7.01953" y="-4.81006" width="176.768" height="176.767" filterUnits="userSpaceOnUse" color-interpolation-filters="sRGB">
<feFlood flood-opacity="0" result="BackgroundImageFix"/>
<feColorMatrix in="SourceAlpha" type="matrix" values="0 0 0 0 0 0 0 0 0 0 0 0 0 0 0 0 0 0 127 0" result="hardAlpha"/>
<feOffset dy="5"/>
<feGaussianBlur stdDeviation="5"/>
<feComposite in2="hardAlpha" operator="out"/>
<feColorMatrix type="matrix" values="0 0 0 0 0 0 0 0 0 0 0 0 0 0 0 0 0 0 0.2 0"/>
<feBlend mode="normal" in2="BackgroundImageFix" result="effect1_dropShadow_233_2040"/>
<feBlend mode="normal" in="SourceGraphic" in2="effect1_dropShadow_233_2040" result="shape"/>
</filter>
<clipPath id="clip0_233_2040">
<rect width="80.0043" height="81.0304" fill="white" transform="translate(53.209 29.08) rotate(15)"/>
</clipPath>
<clipPath id="clip1_233_2040">
<rect width="80.0043" height="81.0304" fill="white" transform="translate(53.209 29.08) rotate(15)"/>
</clipPath>
<clipPath id="clip2_233_2040">
<rect width="80" height="81.039" fill="white" transform="translate(53.209 29.0804) rotate(15)"/>
</clipPath>
</defs>
</svg>
