<svg width="164" height="165" viewBox="0 0 164 165" fill="none" xmlns="http://www.w3.org/2000/svg">
<g filter="url(#filter0_d_203_140)">
<rect x="3.62" y="33.18" width="128" height="128" rx="32" transform="rotate(-15 3.62 33.18)" fill="#4A8DFF" shape-rendering="crispEdges"/>
<g clip-path="url(#clip0_203_140)">
<g clip-path="url(#clip1_203_140)">
<g clip-path="url(#clip2_203_140)">
<mask id="mask0_203_140" style="mask-type:luminance" maskUnits="userSpaceOnUse" x="34" y="30" width="97" height="97">
<path d="M109.906 30.2468L34.0774 50.5651L54.3957 126.394L130.225 106.076L109.906 30.2468Z" fill="white"/>
</mask>
<g mask="url(#mask0_203_140)">
<path d="M58.3171 107.247L67.5924 117.782L78.9887 107.336C80.3006 106.212 80.973 104.707 81.2615 102.975L83.2242 85.0149L69.6315 83.2503L67.8369 98.6274L58.3171 107.247Z" fill="#F5DF4D"/>
<path d="M83.3122 78.9224L69.5663 78.1919L69.2623 85.887C69.192 87.23 69.5231 88.4654 70.1551 89.6202C70.7871 90.7749 71.6926 91.7461 72.8439 92.4306L87.718 100.583L91.8635 115.251L105.053 111.496L100.035 93.9723C99.5381 92.1192 98.3944 90.6602 96.759 89.7743L83.2367 82.253L83.3122 78.9224Z" fill="#00CCBE"/>
<path d="M100.284 64.0026L94.7225 66.9272L116.821 109.667L122.282 106.769L100.284 64.0026Z" fill="#990066"/>
<path d="M102.823 60.2325C101.406 58.9571 99.826 58.277 97.882 58.2462C96.0658 58.2915 94.4153 58.9545 93.0858 60.4141L90.9184 62.7604C89.6892 64.1932 89.0444 65.8004 89.0392 67.7879C89.1344 69.7486 89.7765 71.3421 91.2212 72.7204C92.6384 73.9958 94.2187 74.6758 96.0623 74.7335C97.9787 74.6614 99.5289 74.0254 100.858 72.5657L103.026 70.2194C104.255 68.7866 104.9 67.1794 104.905 65.1918C104.91 63.2043 104.14 61.5348 102.823 60.2325Z" fill="white"/>
<path d="M103.126 70.1927L93.1131 60.5172L89.27 64.6366L79.0938 59.9703C77.7418 59.3395 76.1992 59.2011 74.6941 59.6044C73.189 60.0077 71.995 60.769 71.0392 62.0182C70.0835 63.2674 69.5842 64.6149 69.4963 66.2936L69.3648 82.6596L83.1283 83.0543L83.2717 77.1678L88.2958 79.4629C89.6477 80.0937 90.9897 80.2858 92.422 80.0124C93.8543 79.739 95.076 79.0806 96.0593 77.9344L103.126 70.1927Z" fill="#FF3399"/>
<path d="M67.8941 59.1094C66.3942 57.5251 64.4578 56.7198 62.3131 56.7428L57.6676 56.6635C55.5229 56.6864 53.599 57.5329 52.0688 59.0464C50.5661 60.6628 49.8034 62.6327 49.7531 64.853L49.963 78.4793C50.013 80.6727 50.7378 82.575 52.338 84.1324C53.9658 85.7927 55.7744 86.5219 58.0193 86.4721L62.6649 86.5515C64.8096 86.5285 66.7335 85.6819 68.2362 84.0656C69.7664 82.5521 70.5567 80.6852 70.5066 78.4918L70.3971 64.8386C70.3471 62.6452 69.5219 60.7697 67.8941 59.1094Z" fill="#990066"/>
<path d="M70.6568 57.3759C70.8123 57.5549 70.9678 57.7339 71.324 57.8592L78.6494 42.6552C78.3936 42.5031 78.0649 42.4808 77.8367 42.4316C76.5675 42.1096 75.3082 42.2264 74.0039 42.5759C71.6962 43.1942 70.0104 44.5286 68.8464 46.606C67.6824 48.6834 67.4038 50.8546 68.0383 53.2225C68.58 54.8428 69.3951 56.2795 70.6568 57.3759Z" fill="#990066"/>
<path d="M84.3652 48.7372C83.7583 46.4723 82.4039 44.6284 80.3572 43.4113C79.7175 43.031 79.1055 42.7536 78.5211 42.5792L71.1957 57.7831C71.4515 57.9353 71.607 58.1143 71.8904 58.3694C73.9372 59.5865 76.0642 59.8993 78.372 59.2809C80.5795 58.6894 82.3655 57.3282 83.5295 55.2507C84.7211 53.2763 84.9997 51.1052 84.3652 48.7372Z" fill="#F5DF4D"/>
</g>
</g>
</g>
</g>
</g>
<defs>
<filter id="filter0_d_203_140" x="-6.38" y="-4.94885" width="176.767" height="176.767" filterUnits="userSpaceOnUse" color-interpolation-filters="sRGB">
<feFlood flood-opacity="0" result="BackgroundImageFix"/>
<feColorMatrix in="SourceAlpha" type="matrix" values="0 0 0 0 0 0 0 0 0 0 0 0 0 0 0 0 0 0 127 0" result="hardAlpha"/>
<feOffset dy="5"/>
<feGaussianBlur stdDeviation="5"/>
<feComposite in2="hardAlpha" operator="out"/>
<feColorMatrix type="matrix" values="0 0 0 0 0 0 0 0 0 0 0 0 0 0 0 0 0 0 0.2 0"/>
<feBlend mode="normal" in2="BackgroundImageFix" result="effect1_dropShadow_203_140"/>
<feBlend mode="normal" in="SourceGraphic" in2="effect1_dropShadow_203_140" result="shape"/>
</filter>
<clipPath id="clip0_203_140">
<rect width="79.9946" height="79.0316" fill="white" transform="translate(33.14 50.62) rotate(-15)"/>
</clipPath>
<clipPath id="clip1_203_140">
<rect width="79.9946" height="79.0316" fill="white" transform="translate(33.14 50.62) rotate(-15)"/>
</clipPath>
<clipPath id="clip2_203_140">
<rect width="80" height="79.0361" fill="white" transform="translate(33.1379 50.6122) rotate(-15)"/>
</clipPath>
</defs>
</svg>
