<svg width="52" height="38" viewBox="0 0 52 38" fill="none" xmlns="http://www.w3.org/2000/svg">
<path d="M43.4623 18L41.2656 23.1191L49.3078 25L45.2124 20.7143L51.8766 18H43.4623Z" fill="#FF6666"/>
<path d="M27.1174 37.6518L23.1924 27.2159L21.2678 27.5038L25.1938 37.9396L27.1174 37.6518ZM17.9199 37.8561L16.073 27L14.1484 27.144L15.9962 38L17.9199 37.8561Z" fill="#990066"/>
<path d="M10.7528 7.60584L15.103 0L0 2.71955L7.6209 7.95957L11.5188 23.0385C12.9806 26.0012 15.5897 27.6374 19.3479 27.9469C20.3924 28.0354 21.5406 28.0133 22.7582 27.8806C22.8627 27.8585 23.0024 27.8364 23.1061 27.8143L41.8277 23.4144C43.4634 23.0164 44.6818 22.3089 45.4119 21.314C46.1085 20.319 46.178 19.2798 45.5516 18.2186C44.9595 17.2015 43.8464 16.4498 42.2458 15.9855C40.6795 15.5212 39.0788 15.477 37.4431 15.8749L30.4837 17.5111L10.7528 7.60584Z" fill="#4A8DFF"/>
<path d="M14.4777 12C13.4728 13.0455 12.9707 14.2273 12.9707 15.5455C12.9707 17.3182 13.908 18.8409 15.7159 20.1136C17.5576 21.3864 19.8008 22 22.4125 22C25.0233 22 27.2665 21.3637 29.1082 20.1136C29.2417 20.0227 29.3423 19.9318 29.4767 19.8409L14.4777 12Z" fill="#262642" fill-opacity="0.1"/>
<path d="M38.9082 19.4854C38.9082 19.8932 38.9666 20.2427 39.0833 20.534C39.1999 20.8252 39.3399 21 39.5035 21C39.667 21 39.807 20.8544 39.9119 20.534C40.0286 20.2427 40.0872 19.8932 40.0872 19.4854C40.0872 19.0777 40.0286 18.7282 39.9119 18.4369C39.7952 18.1456 39.6552 18 39.5035 18C39.3399 18 39.1999 18.1456 39.0833 18.4369C38.9666 18.7282 38.9082 19.0777 38.9082 19.4854Z" fill="#262642"/>
</svg>
