<svg width="33" height="33" viewBox="0 0 33 33" fill="none" xmlns="http://www.w3.org/2000/svg">
<g clip-path="url(#clip0_216_203)">
<g clip-path="url(#clip1_216_203)">
<path d="M25.1852 25.8658C24.8883 27.4243 23.5257 28.5519 21.9392 28.5519H11.2401C9.65354 28.5519 8.29094 27.4243 7.99408 25.8658L5.58096 13.1969L16.5001 5.12225L27.5988 13.1941L25.1852 25.8658Z" fill="#FFC800"/>
<path opacity="0.5" fill-rule="evenodd" clip-rule="evenodd" d="M13.7558 23.7111C13.7558 23.122 14.2333 22.6444 14.8224 22.6444H19.0891C19.6782 22.6444 20.1558 23.122 20.1558 23.7111C20.1558 24.3002 19.6782 24.7778 19.0891 24.7778H14.8224C14.2333 24.7778 13.7558 24.3002 13.7558 23.7111Z" fill="#945151"/>
<path d="M20.0785 16.8998C20.0785 18.8208 18.5212 20.378 16.6002 20.378C14.6792 20.378 13.122 18.8208 13.122 16.8998C13.122 14.9788 14.6792 13.4215 16.6002 13.4215C18.5212 13.4215 20.0785 14.9788 20.0785 16.8998Z" fill="#945151"/>
<path d="M16.7685 3.44462C17.2431 3.44231 17.7233 3.58589 18.1361 3.88558L30.5455 12.8319C31.5781 13.5822 31.807 15.0275 31.0568 16.0601C30.3067 17.0924 28.862 17.3215 27.8294 16.5719L16.7602 8.59185L5.69208 16.5712L5.69121 16.5719C4.65865 17.3213 3.21395 17.0923 2.46391 16.0599C1.71367 15.0273 1.94258 13.582 2.9752 12.8318L2.97679 12.8306L15.3839 3.88596C15.8015 3.58281 16.2887 3.43889 16.7685 3.44462Z" fill="#FF4B4B"/>
</g>
</g>
<defs>
<clipPath id="clip0_216_203">
<rect width="32" height="32" fill="white" transform="translate(0.6 0.599998)"/>
</clipPath>
<clipPath id="clip1_216_203">
<rect width="32" height="32" fill="white" transform="translate(0.6 0.599998)"/>
</clipPath>
</defs>
</svg>
