<svg width="34" height="30" viewBox="0 0 34 30" fill="none" xmlns="http://www.w3.org/2000/svg">
<g clip-path="url(#clip0_216_230)">
<path d="M17 29.9414C26.3522 29.9414 33.9336 23.2519 33.9336 15C33.9336 6.74809 26.3522 0.0585938 17 0.0585938C7.64783 0.0585938 0.0664062 6.74809 0.0664062 15C0.0664062 23.2519 7.64783 29.9414 17 29.9414Z" fill="#6E7889"/>
<path d="M17 26.2061C24.0141 26.2061 29.7002 21.1889 29.7002 15C29.7002 8.81107 24.0141 3.79395 17 3.79395C9.98588 3.79395 4.2998 8.81107 4.2998 15C4.2998 21.1889 9.98588 26.2061 17 26.2061Z" fill="#E0E6E9"/>
<path d="M22.9867 9.71759L19.9937 17.6415L11.0133 20.2824L14.0063 12.3585L22.9867 9.71759Z" fill="#FD3F2E"/>
<path d="M17 27.1399C9.41348 27.1399 3.24142 21.694 3.24142 15C3.24142 8.30602 9.41348 2.86014 17 2.86014C24.5865 2.86014 30.7586 8.30602 30.7586 15C30.7586 21.694 24.5865 27.1399 17 27.1399ZM17 4.72781C10.5806 4.72781 5.35812 9.33592 5.35812 15.0001C5.35812 20.6642 10.5806 25.2722 17 25.2722C23.4194 25.2722 28.6419 20.6641 28.6419 15C28.6419 9.33586 23.4194 4.72781 17 4.72781Z" fill="#C2CED4"/>
<path d="M17 15.9295C17.5819 15.9295 18.0537 15.5132 18.0537 14.9998C18.0537 14.4863 17.5819 14.0701 17 14.0701C16.4181 14.0701 15.9463 14.4863 15.9463 14.9998C15.9463 15.5132 16.4181 15.9295 17 15.9295Z" fill="#FDE44D"/>
</g>
<defs>
<clipPath id="clip0_216_230">
<rect width="34" height="30" fill="white"/>
</clipPath>
</defs>
</svg>
