<svg width="1055" height="272" viewBox="0 0 1055 272" fill="none" xmlns="http://www.w3.org/2000/svg">
<path d="M154.859 217.783C100.935 227.581 54.0865 204.131 42.7405 159.202C31.3946 114.274 62.8592 76.8074 116.784 67.0105C162.596 58.6875 204.45 75.213 218.286 108.259L172.593 121.005C164.891 106.319 145.856 98.1356 127.006 101.56C100.759 106.329 86.9528 125.769 93.0858 150.055C99.4573 174.298 121.441 187.237 147.21 182.555C165.821 179.174 179.764 165.211 179.987 149.295L227.929 145.454C232.118 179.829 201.625 209.287 154.859 217.783Z" fill="#262642"/>
<path d="M369.374 77.7675L385.029 183.735L339.751 188.546L337.445 172.939L335.024 173.196C326.947 186.778 317.355 193.43 302.586 194.999C276.679 197.752 255.911 182.022 252.27 157.378L242.502 91.2511L287.778 86.4391L296.485 145.378C298.002 155.646 305.844 162.114 316.497 160.982C327.15 159.849 334.29 151.581 332.713 140.903L324.097 82.5793L369.374 77.7675Z" fill="#262642"/>
<path d="M405.238 182.73L398.506 76.0874L443.828 74.0289L444.78 89.116L447.46 88.9943C452.156 78.2106 462.947 71.088 475.618 70.5124C480.491 70.2912 485.673 71.0921 489.676 72.5684L491.842 106.876C484.362 104.521 475.486 103.266 469.638 103.532C455.749 104.163 446.59 113.906 447.464 127.753L450.804 180.661L405.238 182.73Z" fill="#262642"/>
<path d="M510.824 178.403L511.856 71.6111L557.242 71.9264L557.096 87.0346L559.78 87.0533C565.249 76.5355 576.538 69.9908 589.227 70.0789C594.107 70.1128 599.221 71.1832 603.109 72.866L602.777 107.222C595.483 104.48 586.714 102.764 580.859 102.723C566.95 102.626 557.1 111.872 556.966 125.738L556.454 178.72L510.824 178.403Z" fill="#262642"/>
<path d="M681.845 186.255C640.257 183.355 613.7 159.282 617.019 125.041C620.299 91.2122 651.582 71.5888 693.168 74.489C734.511 77.3723 759.63 101.137 756.33 135.172C756.031 138.266 755.268 143.611 754.581 145.64L662.897 139.247C664.695 151.002 673.237 158.866 686.856 159.816C697.799 160.578 706.042 156.377 710.593 149.841L749.167 158.554C740.904 178.121 713.946 188.494 681.845 186.255ZM664.41 118.585L711.346 121.859C711.15 111.254 702.505 101.929 689.616 101.03C676.969 100.148 667.981 106.998 664.41 118.585Z" fill="#262642"/>
<path d="M768.057 190.357L788.496 84.9775L833.522 91.2603L830.512 106.781L832.92 107.117C845.168 96.2411 856.631 91.9679 871.318 94.0168C897.081 97.6121 911.695 117.9 906.981 142.202L894.226 207.962L849.2 201.679L860.569 143.068C862.548 132.856 857.153 124.972 846.559 123.493C835.966 122.015 826.353 128.225 824.333 138.64L813.082 196.64L768.057 190.357Z" fill="#262642"/>
<path d="M963.602 224.245C936.711 219.072 923.658 199.583 930.081 175.564L940.713 135.8L925.008 132.779L932.187 105.933L949.559 109.276L966.339 78.3356L1001.32 85.0654L992.631 117.562L1018.33 122.506L1011.15 149.352L985.452 144.407L975.305 182.354C973.146 190.428 977.4 196.976 986.204 198.67C989.537 199.311 994.457 199.621 998.481 199.546L991.464 225.785C982.963 226.697 971.217 225.71 963.602 224.245Z" fill="#262642"/>
<path d="M881.136 73.239L878.939 78.3581L886.982 80.239L882.886 75.9533L889.55 73.239H881.136Z" fill="#FF6666"/>
<path d="M864.791 92.8908L860.866 82.4549L858.942 82.7428L862.868 93.1786L864.791 92.8908ZM855.594 93.0951L853.747 82.239L851.822 82.383L853.67 93.239L855.594 93.0951Z" fill="#990066"/>
<path d="M848.427 62.8449L852.777 55.239L837.674 57.9586L845.295 63.1986L849.193 78.2775C850.654 81.2403 853.264 82.8764 857.022 83.1859C858.066 83.2744 859.214 83.2523 860.432 83.1196C860.537 83.0975 860.676 83.0754 860.78 83.0533L879.502 78.6534C881.137 78.2555 882.356 77.548 883.086 76.553C883.782 75.558 883.852 74.5189 883.225 73.4576C882.633 72.4406 881.52 71.6888 879.92 71.2245C878.353 70.7602 876.753 70.716 875.117 71.114L868.158 72.7501L848.427 62.8449Z" fill="#4A8DFF"/>
<path d="M852.152 67.239C851.147 68.2845 850.645 69.4663 850.645 70.7845C850.645 72.5572 851.582 74.08 853.39 75.3526C855.231 76.6254 857.475 77.239 860.086 77.239C862.697 77.239 864.94 76.6027 866.782 75.3526C866.916 75.2617 867.016 75.1708 867.151 75.0799L852.152 67.239Z" fill="#262642" fill-opacity="0.1"/>
<path d="M876.582 74.7244C876.582 75.1322 876.64 75.4818 876.757 75.773C876.874 76.0642 877.014 76.239 877.177 76.239C877.341 76.239 877.481 76.0934 877.586 75.773C877.702 75.4818 877.761 75.1322 877.761 74.7244C877.761 74.3167 877.702 73.9672 877.586 73.6759C877.469 73.3846 877.329 73.239 877.177 73.239C877.014 73.239 876.874 73.3846 876.757 73.6759C876.64 73.9672 876.582 74.3167 876.582 74.7244Z" fill="#262642"/>
</svg>
