<svg width="51" height="50" viewBox="0 0 51 50" fill="none" xmlns="http://www.w3.org/2000/svg">
<path d="M33.8672 5.46875H21.1172V44.5312H33.8672V5.46875Z" fill="#454B60"/>
<path d="M33.8672 42.5781H21.1172V44.5312H33.8672V42.5781Z" fill="#42455E"/>
<path d="M21.1172 5.46875V7.8125H31.0781V44.5312H33.8672V5.46875H21.1172Z" fill="#D6AC90"/>
<path d="M45.0234 25L37.0547 17.1875V21.0938H21.1172V28.9062H37.0547V32.8125L45.0234 25Z" fill="#E2607F"/>
<path d="M37.0547 27.3438H21.1172V28.9062H37.0547V27.3438Z" fill="#DD4E6A"/>
<path d="M45.0234 25L37.0547 32.8125V30.8594L45.0234 25Z" fill="#DD4E6A"/>
<path d="M33.8672 42.5781H31.0781V44.5312H33.8672V42.5781Z" fill="#CBA07A"/>
<path d="M33.8672 28.9062H31.0781V30.8594H33.8672V28.9062Z" fill="#CBA07A"/>
<path d="M45.0234 44.1406V44.9219H21.1172C21.0115 44.9219 20.9102 44.8807 20.8354 44.8075C20.7607 44.7342 20.7188 44.6349 20.7188 44.5312C20.7188 44.4276 20.7607 44.3283 20.8354 44.255C20.9102 44.1818 21.0115 44.1406 21.1172 44.1406H45.0234Z" fill="#8288A1"/>
<path d="M21.1172 49.6094L5.97656 44.5312V5.46875L21.1172 0.390625V49.6094Z" fill="#DDE1E8"/>
<path d="M21.1172 47.2656V49.6094L5.97656 44.5312V42.1875L21.1172 47.2656Z" fill="#C7CDD8"/>
<path d="M17.5312 26.1719V23.8281C17.5312 23.7245 17.5732 23.6252 17.6479 23.5519C17.7227 23.4787 17.824 23.4375 17.9297 23.4375C18.0354 23.4375 18.1367 23.4787 18.2114 23.5519C18.2861 23.6252 18.3281 23.7245 18.3281 23.8281V26.1719C18.3281 26.2755 18.2861 26.3748 18.2114 26.4481C18.1367 26.5213 18.0354 26.5625 17.9297 26.5625C17.824 26.5625 17.7227 26.5213 17.6479 26.4481C17.5732 26.3748 17.5312 26.2755 17.5312 26.1719Z" fill="#949AAF"/>
</svg>
