<svg width="32" height="32" viewBox="0 0 32 32" fill="none" xmlns="http://www.w3.org/2000/svg">
<g clip-path="url(#clip0_216_254)">
<g clip-path="url(#clip1_216_254)">
<path d="M16 29.2174C23.2998 29.2174 29.2174 23.2997 29.2174 16C29.2174 8.70022 23.2998 2.78259 16 2.78259C8.70024 2.78259 2.78261 8.70022 2.78261 16C2.78261 23.2997 8.70024 29.2174 16 29.2174Z" fill="#CE82FF" stroke="#CE82FF" stroke-width="1.3913"/>
<path d="M10.4348 17.3913C11.2032 17.3913 11.8261 16.7684 11.8261 16C11.8261 15.2316 11.2032 14.6087 10.4348 14.6087C9.66639 14.6087 9.04348 15.2316 9.04348 16C9.04348 16.7684 9.66639 17.3913 10.4348 17.3913Z" fill="white"/>
<path d="M16 17.3913C16.7684 17.3913 17.3913 16.7684 17.3913 16C17.3913 15.2316 16.7684 14.6087 16 14.6087C15.2316 14.6087 14.6087 15.2316 14.6087 16C14.6087 16.7684 15.2316 17.3913 16 17.3913Z" fill="white"/>
<path d="M21.5652 17.3913C22.3336 17.3913 22.9565 16.7684 22.9565 16C22.9565 15.2316 22.3336 14.6087 21.5652 14.6087C20.7968 14.6087 20.1739 15.2316 20.1739 16C20.1739 16.7684 20.7968 17.3913 21.5652 17.3913Z" fill="white"/>
</g>
</g>
<defs>
<clipPath id="clip0_216_254">
<rect width="32" height="32" fill="white"/>
</clipPath>
<clipPath id="clip1_216_254">
<rect width="32" height="32" fill="white"/>
</clipPath>
</defs>
</svg>
