<svg width="32" height="32" viewBox="0 0 32 32" fill="none" xmlns="http://www.w3.org/2000/svg">
<g clip-path="url(#clip0_18_218)">
<g clip-path="url(#clip1_18_218)">
<path fill-rule="evenodd" clip-rule="evenodd" d="M16.127 3.47961C9.97989 3.47961 4.9966 8.46288 4.9966 14.6101V15.2609C2.93508 16.2854 1.51834 18.4127 1.51834 20.871C1.51834 24.3287 4.32143 27.1318 7.7792 27.1318H24.4748C27.9327 27.1318 30.7357 24.3287 30.7357 20.871C30.7357 18.4127 29.319 16.2854 27.2575 15.2609V14.6101C27.2575 8.46288 22.2742 3.47961 16.127 3.47961Z" fill="#9069CD"/>
<path d="M7.77921 14.6101C7.77921 9.99965 11.5167 6.26222 16.127 6.26222C20.7374 6.26222 24.4749 9.99965 24.4749 14.6101V20.1753C24.4749 24.7857 20.7374 28.5231 16.127 28.5231C11.5167 28.5231 7.77921 24.7857 7.77921 20.1753V14.6101Z" fill="#F3AD6D"/>
<path d="M4.99661 17.0449C4.99661 15.316 6.39816 13.9144 8.12703 13.9144H24.127C25.8559 13.9144 27.2575 15.316 27.2575 17.0449C27.2575 18.7737 25.8559 20.1753 24.127 20.1753H8.12703C6.39816 20.1753 4.99661 18.7737 4.99661 17.0449Z" fill="#F3AD6D"/>
<path d="M12.6488 14.2623C12.6488 13.6859 13.116 13.2188 13.6923 13.2188C14.2685 13.2188 14.7357 13.6859 14.7357 14.2623V17.0449C14.7357 17.6211 14.2685 18.0883 13.6923 18.0883C13.116 18.0883 12.6488 17.6211 12.6488 17.0449V14.2623Z" fill="#BF8034"/>
<path d="M16.8227 14.2623C16.8227 13.6859 17.2899 13.2188 17.8662 13.2188C18.4424 13.2188 18.9096 13.6859 18.9096 14.2623V17.0449C18.9096 17.6211 18.4424 18.0883 17.8662 18.0883C17.2899 18.0883 16.8227 17.6211 16.8227 17.0449V14.2623Z" fill="#BF8034"/>
<path d="M11.9531 20.2049C11.9531 19.8043 12.2778 19.4796 12.6784 19.4796H18.8801C19.2806 19.4796 19.6053 19.8043 19.6053 20.2049V20.5231C19.6053 22.6362 17.8923 24.3492 15.7792 24.3492C13.6662 24.3492 11.9531 22.6362 11.9531 20.5231V20.2049Z" fill="white"/>
<path d="M4.99661 14.613V14.6101C4.99661 8.46288 9.9799 3.47961 16.127 3.47961C18.1008 3.47961 19.9546 3.99338 21.562 4.89447C20.6836 10.7826 15.4703 15.3057 9.17051 15.3057C7.707 15.3057 6.30212 15.0616 4.99661 14.613Z" fill="#9069CD"/>
</g>
</g>
<defs>
<clipPath id="clip0_18_218">
<rect width="32" height="32" fill="white"/>
</clipPath>
<clipPath id="clip1_18_218">
<rect width="32" height="32" fill="white"/>
</clipPath>
</defs>
</svg>
