<svg width="1521" height="453" viewBox="0 0 1521 453" fill="none" xmlns="http://www.w3.org/2000/svg">
<path d="M1255.27 125.204H1216.55V405.075H1255.27V125.204Z" fill="#FF6666"/>
<path d="M1344.95 109.362C1344.95 102.497 1342.49 96.6886 1337.65 91.8481C1332.81 87.008 1327 84.6317 1320.22 84.6317H1151.25C1144.38 84.6317 1138.57 87.096 1133.73 91.8481C1128.89 96.6886 1126.52 102.497 1126.52 109.362C1126.52 116.227 1128.89 122.035 1133.73 126.788C1138.57 131.628 1144.38 134.004 1151.25 134.004H1320.22C1327.09 134.004 1332.9 131.54 1337.65 126.788C1342.58 122.035 1344.95 116.227 1344.95 109.362Z" fill="#019999"/>
<path d="M1320.22 49.6915C1320.22 42.9147 1317.85 37.0181 1313.01 32.1775C1308.17 27.337 1302.36 24.9607 1295.49 24.9607C1288.72 24.9607 1282.91 27.425 1278.07 32.1775L1260.55 49.7795V24.9607C1260.55 18.096 1258.09 12.2873 1253.34 7.44678C1248.5 2.60624 1242.69 0.229973 1235.91 0.229973C1229.13 0.229973 1223.24 2.69425 1218.31 7.44678C1213.47 12.2873 1211.09 18.096 1211.09 24.9607V49.6915L1193.67 32.2655C1188.83 27.425 1183.02 24.9607 1176.24 25.0487C1169.38 24.9607 1163.57 27.425 1158.64 32.2655C1153.8 37.1061 1151.42 42.9147 1151.42 49.8675C1151.42 56.6442 1153.8 62.4529 1158.64 67.2934L1200.88 109.538L1196.66 113.851H1275.25L1270.94 109.538L1313.18 67.2934C1317.85 62.4529 1320.22 56.5562 1320.22 49.6915Z" fill="#019999"/>
<path d="M32.3028 128.02C20.0695 128.02 9.33247 131.453 0.0915545 138.405V451.72C9.42048 458.673 20.1576 462.193 32.3028 462.193C47.4403 462.193 60.3776 456.825 71.2027 446.088C81.9397 435.438 87.3083 422.501 87.2203 407.363V183.026C87.2203 167.889 81.8517 154.863 71.2027 144.126C60.4656 133.389 47.5283 128.02 32.3028 128.02Z" fill="#019999"/>
<path d="M121.104 173.081C109.223 173.081 99.0138 177.306 90.565 185.755C82.1161 194.204 77.8917 204.413 77.8917 216.382V392.842C77.8917 404.811 82.1161 414.932 90.565 423.381C99.0138 431.83 109.223 436.054 121.104 436.054C133.073 436.054 143.194 431.83 151.731 423.381C160.18 414.932 164.316 404.811 164.316 392.842V216.294C164.316 204.325 160.092 194.204 151.731 185.667C143.282 177.218 133.073 173.081 121.104 173.081Z" fill="#019999"/>
<path d="M1499.06 132.429C1488.32 143.26 1482.95 156.204 1482.95 171.349V395.805C1482.95 410.951 1488.32 423.895 1499.06 434.638C1507.33 442.916 1516.92 448.023 1527.84 449.96V117.283C1516.92 119.132 1507.33 124.239 1499.06 132.429Z" fill="#019999"/>
<path d="M1476.18 204.765C1467.73 196.316 1457.52 192.091 1445.55 192.091C1433.67 192.091 1423.46 196.316 1415.01 204.765C1406.56 213.214 1402.34 223.423 1402.34 235.392V411.94C1402.34 423.909 1406.56 434.03 1415.01 442.479C1423.46 450.928 1433.67 455.153 1445.55 455.153C1457.52 455.153 1467.64 450.928 1476.18 442.479C1484.62 434.03 1488.76 423.909 1488.76 411.94V235.304C1488.85 223.335 1484.62 213.126 1476.18 204.765Z" fill="#019999"/>
<path d="M1292.01 241.377C1285.45 241.377 1279.85 243.703 1275.19 248.318C1270.54 252.97 1268.21 258.577 1268.21 265.137V281.04C1267.75 280.506 1267.3 279.972 1266.77 279.438C1263.11 275.777 1258.68 273.984 1253.5 273.984C1248.35 273.984 1243.92 275.815 1240.26 279.438C1236.6 283.1 1234.77 287.523 1234.77 292.71V345.798H1349.18V279.553C1349.18 274.366 1347.35 269.98 1343.72 266.281C1340.06 262.62 1335.64 260.827 1330.45 260.827C1325.3 260.827 1320.88 262.658 1317.22 266.281C1316.69 266.814 1316.23 267.348 1315.77 267.883V265.137C1315.77 258.577 1313.45 252.97 1308.83 248.318C1304.18 243.665 1298.57 241.377 1292.01 241.377Z" fill="#019999"/>
<path d="M225.835 276.229C208.937 259.243 188.431 250.794 164.492 250.794C147.683 250.794 132.633 254.93 119.256 263.203C118.288 262.147 117.32 261.179 116.264 260.123C96.0215 239.881 71.6431 229.848 43.0402 229.848C27.4626 229.848 13.1172 232.84 0.00388947 238.825V451.72H500.686C501.83 446.704 502.358 441.511 502.358 436.054C502.358 417.308 495.758 401.291 482.468 388.001C469.179 374.712 453.161 368.111 434.415 368.111C417.43 368.111 402.732 373.567 390.235 384.393C387.155 364.326 378.002 346.813 362.864 331.675C343.942 312.665 320.972 303.16 294.129 303.16C277.32 303.16 262.094 306.856 248.365 314.249C244.58 299.991 237.012 287.318 225.835 276.229Z" fill="#94D483"/>
<path d="M1356.2 315.074C1342.36 307.677 1327 303.98 1310.06 303.98C1283 303.98 1259.83 313.489 1240.75 332.507C1225.49 347.65 1216.27 365.171 1213.16 385.246C1200.56 374.416 1185.74 368.958 1168.62 368.958C1149.72 368.958 1133.57 375.561 1120.17 388.856C1106.77 402.062 1100.11 418.086 1100.11 436.928C1100.11 442.387 1100.64 447.582 1101.8 452.6H1531.36V235.216C1515.74 240.058 1501.81 248.599 1489.39 260.926C1488.32 261.982 1487.34 262.951 1486.37 264.007C1472.88 255.73 1457.71 251.593 1440.85 251.593C1416.72 251.593 1396.03 260.045 1379.01 277.037C1367.64 288.131 1360.1 300.81 1356.2 315.074Z" fill="#94D483"/>
<path d="M1491.92 248.038V247.95C1490.42 245.574 1488.22 244.078 1485.58 243.462C1482.86 242.846 1480.3 243.374 1477.84 244.782L1474.14 247.07L1471.77 243.462C1470.27 241.085 1468.25 239.589 1465.61 239.061C1462.79 238.357 1460.24 238.797 1457.86 240.381C1455.48 241.878 1454.08 243.99 1453.46 246.63C1452.84 249.358 1453.2 251.911 1454.6 254.287L1457.07 258.071L1453.46 260.271C1451.08 261.768 1449.59 263.88 1448.88 266.608C1448.27 269.336 1448.8 271.889 1450.29 274.265H1450.38C1451.79 276.729 1453.9 278.225 1456.63 278.841C1459.36 279.457 1461.91 279.017 1464.29 277.433L1467.98 275.233L1470.09 278.753C1471.59 281.129 1473.7 282.626 1476.52 283.154C1479.25 283.77 1481.8 283.418 1484.09 281.922H1484.18C1486.55 280.425 1488.05 278.225 1488.66 275.497C1489.19 272.769 1488.75 270.216 1487.34 267.928L1485.06 264.408L1488.66 262.032C1491.04 260.535 1492.54 258.511 1493.15 255.783C1493.77 252.967 1493.42 250.414 1491.92 248.038Z" fill="#FF3399"/>
<path d="M1478.28 256.575C1476.87 254.639 1475.11 253.407 1472.82 252.879C1470.53 252.351 1468.42 252.703 1466.4 253.935C1464.46 255.167 1463.14 256.927 1462.61 259.303C1462.17 261.592 1462.53 263.704 1463.76 265.64C1464.99 267.664 1466.75 268.896 1469.04 269.336C1471.33 269.953 1473.53 269.6 1475.46 268.368C1477.49 267.136 1478.72 265.376 1479.16 263C1479.86 260.712 1479.51 258.511 1478.28 256.575Z" fill="#F5DF4D"/>
<path d="M867.331 314.249C863.458 300.079 855.978 287.406 844.8 276.229C827.903 259.243 807.397 250.794 783.458 250.794C766.649 250.794 751.599 254.93 738.222 263.203C737.254 262.147 736.286 261.179 735.229 260.123C714.987 239.881 690.609 229.848 662.006 229.848C633.403 229.848 609.025 239.969 588.783 260.123C568.541 280.365 558.42 304.744 558.42 333.347C558.42 334.931 558.42 336.603 558.508 338.188C541.962 341.356 527.441 349.277 514.767 361.95C497.782 378.936 489.333 399.354 489.333 423.381C489.333 433.414 490.829 442.831 493.821 451.632H1119.74C1120.88 446.616 1121.41 441.423 1121.41 435.966C1121.41 417.22 1114.81 401.203 1101.43 387.913C1088.14 374.624 1072.13 368.023 1053.38 368.023C1036.4 368.023 1021.7 373.479 1009.2 384.305C1006.12 364.238 996.968 346.725 981.83 331.587C962.908 312.577 939.938 303.072 913.095 303.072C896.198 303.072 880.972 306.768 867.331 314.249Z" fill="#94D483"/>
<path d="M97.0776 225.711C94.3493 225.095 91.7971 225.535 89.4208 227.031L85.7243 229.319L83.3481 225.711C81.8519 223.335 79.8277 221.839 77.1874 221.223C74.3712 220.606 71.8189 221.047 69.4427 222.543C67.0664 224.039 65.6583 226.151 65.0422 228.791C64.3382 231.52 64.7782 234.072 66.1863 236.536L68.6506 240.32L64.9542 242.521C62.578 244.017 61.0818 246.129 60.4658 248.857C59.8497 251.586 60.2897 254.138 61.7859 256.426H61.9619C63.3701 258.802 65.3943 260.386 68.2105 261.003C70.9388 261.619 73.4911 261.179 75.8673 259.682L79.5637 257.394L81.7639 260.915C83.26 263.291 85.3723 264.787 88.1887 265.315C90.917 266.019 93.4692 265.579 95.7575 264.083C98.1337 262.587 99.6299 260.474 100.334 257.658C100.862 254.93 100.422 252.466 99.0138 250.089L96.6376 246.569L100.334 244.105C102.71 242.609 104.206 240.496 104.822 237.856C105.526 235.128 105.086 232.576 103.59 230.111V230.023C102.006 227.823 99.8939 226.327 97.0776 225.711Z" fill="#FF3399"/>
<path d="M87.1327 250.618C89.1568 249.386 90.3889 247.625 90.829 245.249C91.357 242.961 91.093 240.849 89.8609 238.824C88.5408 236.888 86.6927 235.656 84.4044 235.128C82.2042 234.6 80.092 234.952 78.0678 236.184C76.1316 237.328 74.8115 239.089 74.2834 241.465C73.7554 243.753 74.1954 245.865 75.4275 247.801C76.6597 249.826 78.4198 251.058 80.7081 251.498C83.0843 252.202 85.1965 251.85 87.1327 250.618Z" fill="#F5DF4D"/>
<path d="M77.0114 288.638C77.7155 285.91 77.2754 283.357 75.7793 280.893C74.2831 278.517 72.1709 277.021 69.3547 276.405C66.6264 275.789 64.0741 276.229 61.6979 277.725L58.0015 280.013L55.6253 276.405C54.1291 274.028 52.1049 272.532 49.4647 271.916C46.6484 271.3 44.0961 271.74 41.7199 273.324C39.3436 274.82 37.9355 276.933 37.3194 279.573C36.6154 282.301 37.0554 284.853 38.4636 287.318L40.9278 291.102L37.2314 293.302C34.8552 294.798 33.359 296.911 32.743 299.639C32.1269 302.367 32.567 304.919 34.0631 307.296H34.2391C35.6473 309.672 37.6715 311.256 40.3998 311.872C43.128 312.488 45.6803 312.048 47.9685 310.552L51.6649 308.264L53.8651 311.784C55.3613 314.16 57.4735 315.657 60.2897 316.185C63.018 316.889 65.5703 316.449 67.8585 314.952H67.9465C70.3228 313.456 71.8189 311.344 72.523 308.528C73.051 305.8 72.611 303.335 71.2028 300.959L68.8266 297.439L72.523 294.974C74.9872 293.39 76.4834 291.366 77.0114 288.638Z" fill="#FF3399"/>
<path d="M56.7697 285.734C54.5694 285.206 52.4572 285.558 50.433 286.79C48.4968 287.934 47.1767 289.694 46.5606 292.07C46.0326 294.359 46.4726 296.471 47.7048 298.407C48.9369 300.431 50.697 301.663 52.9853 302.103C55.3615 302.719 57.4737 302.367 59.4099 301.135C61.4341 299.903 62.6663 298.143 63.1063 295.767C63.6343 293.478 63.3703 291.366 62.1382 289.342C60.9061 287.494 59.0579 286.262 56.7697 285.734Z" fill="#F5DF4D"/>
</svg>
